<mxfile host="app.diagrams.net" modified="2023-10-21T05:14:50.825Z" agent="Mozilla/5.0 (Windows NT 10.0; Win64; x64) AppleWebKit/537.36 (KHTML, like Gecko) Chrome/118.0.0.0 Safari/537.36" etag="IiwCCF5gMmbCy6Qj_Ij3" version="22.0.6" type="device">
  <diagram name="Page-1" id="TUuK_z1TODneTFZ7jnLf">
    <mxGraphModel dx="1219" dy="612" grid="1" gridSize="10" guides="1" tooltips="1" connect="1" arrows="1" fold="1" page="1" pageScale="1" pageWidth="850" pageHeight="1100" math="0" shadow="0">
      <root>
        <mxCell id="0" />
        <mxCell id="1" parent="0" />
        <mxCell id="OzavWiV9OdfGLWeC7wIS-1" value="" style="swimlane;html=1;childLayout=stackLayout;startSize=0;rounded=0;shadow=0;comic=0;labelBackgroundColor=none;strokeWidth=1;fontFamily=Verdana;fontSize=12;align=center;" parent="1" vertex="1">
          <mxGeometry x="40" y="21" width="500" height="700" as="geometry">
            <mxRectangle x="40" y="20" width="70" height="30" as="alternateBounds" />
          </mxGeometry>
        </mxCell>
        <mxCell id="OzavWiV9OdfGLWeC7wIS-2" value="&lt;font style=&quot;font-size: 14px;&quot;&gt;User&lt;/font&gt;" style="swimlane;html=1;startSize=20;" parent="OzavWiV9OdfGLWeC7wIS-1" vertex="1">
          <mxGeometry width="250" height="700" as="geometry">
            <mxRectangle y="20" width="40" height="970" as="alternateBounds" />
          </mxGeometry>
        </mxCell>
        <mxCell id="OzavWiV9OdfGLWeC7wIS-3" value="" style="ellipse;whiteSpace=wrap;html=1;rounded=0;shadow=0;comic=0;labelBackgroundColor=none;strokeWidth=1;fillColor=#000000;fontFamily=Verdana;fontSize=12;align=center;" parent="OzavWiV9OdfGLWeC7wIS-2" vertex="1">
          <mxGeometry x="105" y="40" width="40" height="40" as="geometry" />
        </mxCell>
        <mxCell id="OzavWiV9OdfGLWeC7wIS-5" value="&lt;font style=&quot;font-size: 14px;&quot;&gt;Place Order&lt;/font&gt;" style="rounded=1;whiteSpace=wrap;html=1;" parent="OzavWiV9OdfGLWeC7wIS-2" vertex="1">
          <mxGeometry x="80" y="130" width="90" height="40" as="geometry" />
        </mxCell>
        <mxCell id="OzavWiV9OdfGLWeC7wIS-6" value="" style="endArrow=classic;html=1;rounded=0;exitX=0.5;exitY=1;exitDx=0;exitDy=0;entryX=0.5;entryY=0;entryDx=0;entryDy=0;" parent="OzavWiV9OdfGLWeC7wIS-2" source="OzavWiV9OdfGLWeC7wIS-3" target="OzavWiV9OdfGLWeC7wIS-5" edge="1">
          <mxGeometry width="50" height="50" relative="1" as="geometry">
            <mxPoint x="360" y="300" as="sourcePoint" />
            <mxPoint x="410" y="250" as="targetPoint" />
          </mxGeometry>
        </mxCell>
        <mxCell id="OzavWiV9OdfGLWeC7wIS-7" value="&lt;span style=&quot;font-size: 14px;&quot;&gt;Display bill&lt;/span&gt;" style="rounded=1;whiteSpace=wrap;html=1;" parent="OzavWiV9OdfGLWeC7wIS-2" vertex="1">
          <mxGeometry x="80" y="548" width="90" height="40" as="geometry" />
        </mxCell>
        <mxCell id="OzavWiV9OdfGLWeC7wIS-4" value="" style="ellipse;html=1;shape=endState;fillColor=#000000;strokeColor=#0F0000;" parent="OzavWiV9OdfGLWeC7wIS-2" vertex="1">
          <mxGeometry x="105" y="632" width="40" height="40" as="geometry" />
        </mxCell>
        <mxCell id="8qBxuZVfWUz4ZcnqxZRa-7" value="" style="endArrow=classic;html=1;rounded=0;exitX=0.5;exitY=1;exitDx=0;exitDy=0;entryX=0.5;entryY=0;entryDx=0;entryDy=0;" parent="OzavWiV9OdfGLWeC7wIS-2" source="OzavWiV9OdfGLWeC7wIS-7" target="OzavWiV9OdfGLWeC7wIS-4" edge="1">
          <mxGeometry width="50" height="50" relative="1" as="geometry">
            <mxPoint x="134.99999999999977" y="831" as="sourcePoint" />
            <mxPoint x="650" y="793" as="targetPoint" />
          </mxGeometry>
        </mxCell>
        <mxCell id="E52GenuPR0HvQd338yZz-15" value="&lt;font style=&quot;font-size: 14px;&quot;&gt;show food&lt;/font&gt;" style="rounded=1;whiteSpace=wrap;html=1;" vertex="1" parent="OzavWiV9OdfGLWeC7wIS-2">
          <mxGeometry x="80" y="219" width="90" height="40" as="geometry" />
        </mxCell>
        <mxCell id="OzavWiV9OdfGLWeC7wIS-10" value="&lt;font style=&quot;font-size: 14px;&quot;&gt;System&lt;/font&gt;" style="swimlane;html=1;startSize=20;" parent="OzavWiV9OdfGLWeC7wIS-1" vertex="1">
          <mxGeometry x="250" width="250" height="700" as="geometry" />
        </mxCell>
        <mxCell id="OzavWiV9OdfGLWeC7wIS-12" value="&lt;font style=&quot;font-size: 14px;&quot;&gt;if available&lt;/font&gt;" style="rhombus;whiteSpace=wrap;html=1;" parent="OzavWiV9OdfGLWeC7wIS-10" vertex="1">
          <mxGeometry x="77" y="209" width="96" height="60" as="geometry" />
        </mxCell>
        <mxCell id="dHQx1IV8ueyIYqK32sHI-1" value="&lt;span style=&quot;font-size: 14px;&quot;&gt;search for food&lt;/span&gt;" style="rounded=1;whiteSpace=wrap;html=1;" parent="OzavWiV9OdfGLWeC7wIS-10" vertex="1">
          <mxGeometry x="80" y="130" width="90" height="40" as="geometry" />
        </mxCell>
        <mxCell id="dHQx1IV8ueyIYqK32sHI-2" value="" style="endArrow=classic;html=1;rounded=0;exitX=0.5;exitY=1;exitDx=0;exitDy=0;entryX=0.5;entryY=0;entryDx=0;entryDy=0;" parent="OzavWiV9OdfGLWeC7wIS-10" source="dHQx1IV8ueyIYqK32sHI-1" target="OzavWiV9OdfGLWeC7wIS-12" edge="1">
          <mxGeometry x="-0.5" y="10" width="50" height="50" relative="1" as="geometry">
            <mxPoint x="-70" y="160" as="sourcePoint" />
            <mxPoint x="90" y="160" as="targetPoint" />
            <mxPoint as="offset" />
          </mxGeometry>
        </mxCell>
        <mxCell id="E52GenuPR0HvQd338yZz-14" value="&lt;font style=&quot;font-size: 14px;&quot;&gt;if added&lt;/font&gt;" style="rhombus;whiteSpace=wrap;html=1;" vertex="1" parent="OzavWiV9OdfGLWeC7wIS-10">
          <mxGeometry x="77" y="419" width="96" height="60" as="geometry" />
        </mxCell>
        <mxCell id="OzavWiV9OdfGLWeC7wIS-15" value="" style="endArrow=classic;html=1;rounded=0;exitX=1;exitY=0.5;exitDx=0;exitDy=0;entryX=0;entryY=0.5;entryDx=0;entryDy=0;" parent="OzavWiV9OdfGLWeC7wIS-1" source="OzavWiV9OdfGLWeC7wIS-5" target="dHQx1IV8ueyIYqK32sHI-1" edge="1">
          <mxGeometry x="-0.5" y="10" width="50" height="50" relative="1" as="geometry">
            <mxPoint x="135" y="110" as="sourcePoint" />
            <mxPoint x="340" y="159" as="targetPoint" />
            <mxPoint as="offset" />
          </mxGeometry>
        </mxCell>
        <mxCell id="E52GenuPR0HvQd338yZz-16" value="yes" style="endArrow=classic;html=1;rounded=0;exitX=0;exitY=0.5;exitDx=0;exitDy=0;entryX=1;entryY=0.5;entryDx=0;entryDy=0;" edge="1" parent="OzavWiV9OdfGLWeC7wIS-1" source="OzavWiV9OdfGLWeC7wIS-12" target="E52GenuPR0HvQd338yZz-15">
          <mxGeometry x="-0.7834" y="10" width="50" height="50" relative="1" as="geometry">
            <mxPoint x="385" y="279" as="sourcePoint" />
            <mxPoint x="385" y="329" as="targetPoint" />
            <mxPoint x="-1" as="offset" />
          </mxGeometry>
        </mxCell>
        <mxCell id="dHQx1IV8ueyIYqK32sHI-7" value="no" style="endArrow=classic;html=1;rounded=0;exitX=1;exitY=0.5;exitDx=0;exitDy=0;" parent="1" source="OzavWiV9OdfGLWeC7wIS-12" edge="1">
          <mxGeometry x="-0.9381" y="10" width="50" height="50" relative="1" as="geometry">
            <mxPoint x="220" y="181" as="sourcePoint" />
            <mxPoint x="170" y="120" as="targetPoint" />
            <mxPoint as="offset" />
            <Array as="points">
              <mxPoint x="480" y="260" />
              <mxPoint x="480" y="120" />
            </Array>
          </mxGeometry>
        </mxCell>
        <mxCell id="E52GenuPR0HvQd338yZz-4" value="yes" style="endArrow=classic;html=1;rounded=0;exitX=0.5;exitY=1;exitDx=0;exitDy=0;entryX=0.5;entryY=0;entryDx=0;entryDy=0;" edge="1" parent="1" source="E52GenuPR0HvQd338yZz-12">
          <mxGeometry x="-0.5" y="10" width="50" height="50" relative="1" as="geometry">
            <mxPoint x="425" y="305" as="sourcePoint" />
            <mxPoint x="416" y="345" as="targetPoint" />
            <mxPoint as="offset" />
          </mxGeometry>
        </mxCell>
        <mxCell id="E52GenuPR0HvQd338yZz-13" value="" style="endArrow=classic;html=1;rounded=0;exitX=0.5;exitY=1;exitDx=0;exitDy=0;entryX=0;entryY=0.5;entryDx=0;entryDy=0;" edge="1" parent="1" source="E52GenuPR0HvQd338yZz-15" target="E52GenuPR0HvQd338yZz-12">
          <mxGeometry x="-0.1228" y="30" width="50" height="50" relative="1" as="geometry">
            <mxPoint x="415" y="290" as="sourcePoint" />
            <mxPoint x="416" y="345" as="targetPoint" />
            <mxPoint as="offset" />
            <Array as="points">
              <mxPoint x="165" y="360" />
            </Array>
          </mxGeometry>
        </mxCell>
        <mxCell id="E52GenuPR0HvQd338yZz-12" value="&lt;font style=&quot;font-size: 14px;&quot;&gt;add to cart&lt;/font&gt;" style="rounded=1;whiteSpace=wrap;html=1;" vertex="1" parent="1">
          <mxGeometry x="370" y="340" width="90" height="40" as="geometry" />
        </mxCell>
        <mxCell id="E52GenuPR0HvQd338yZz-19" value="" style="endArrow=classic;html=1;rounded=0;exitX=0.5;exitY=1;exitDx=0;exitDy=0;entryX=0.5;entryY=0;entryDx=0;entryDy=0;" edge="1" parent="1" source="E52GenuPR0HvQd338yZz-12" target="E52GenuPR0HvQd338yZz-14">
          <mxGeometry x="-0.7834" y="10" width="50" height="50" relative="1" as="geometry">
            <mxPoint x="414.9999999999998" y="408" as="sourcePoint" />
            <mxPoint x="220" y="298" as="targetPoint" />
            <mxPoint x="-1" as="offset" />
          </mxGeometry>
        </mxCell>
        <mxCell id="E52GenuPR0HvQd338yZz-21" value="no" style="endArrow=classic;html=1;rounded=0;exitX=1;exitY=0.5;exitDx=0;exitDy=0;" edge="1" parent="1" source="E52GenuPR0HvQd338yZz-14">
          <mxGeometry x="-0.8792" y="10" width="50" height="50" relative="1" as="geometry">
            <mxPoint x="425" y="510" as="sourcePoint" />
            <mxPoint x="260" y="260" as="targetPoint" />
            <mxPoint as="offset" />
            <Array as="points">
              <mxPoint x="480" y="470" />
              <mxPoint x="480" y="320" />
              <mxPoint x="260" y="320" />
            </Array>
          </mxGeometry>
        </mxCell>
        <mxCell id="E52GenuPR0HvQd338yZz-22" value="&lt;font style=&quot;font-size: 14px;&quot;&gt;if checkout&lt;/font&gt;" style="rhombus;whiteSpace=wrap;html=1;" vertex="1" parent="1">
          <mxGeometry x="368" y="560" width="96" height="60" as="geometry" />
        </mxCell>
        <mxCell id="E52GenuPR0HvQd338yZz-23" value="yes" style="endArrow=classic;html=1;rounded=0;exitX=0.5;exitY=1;exitDx=0;exitDy=0;" edge="1" parent="1" source="E52GenuPR0HvQd338yZz-14" target="E52GenuPR0HvQd338yZz-22">
          <mxGeometry x="-0.7834" y="10" width="50" height="50" relative="1" as="geometry">
            <mxPoint x="415" y="500" as="sourcePoint" />
            <mxPoint x="415" y="590" as="targetPoint" />
            <mxPoint x="-1" as="offset" />
          </mxGeometry>
        </mxCell>
        <mxCell id="E52GenuPR0HvQd338yZz-24" value="no" style="endArrow=classic;html=1;rounded=0;exitX=1;exitY=0.5;exitDx=0;exitDy=0;" edge="1" parent="1" source="E52GenuPR0HvQd338yZz-22">
          <mxGeometry x="-0.9737" y="10" width="50" height="50" relative="1" as="geometry">
            <mxPoint x="425" y="510" as="sourcePoint" />
            <mxPoint x="480" y="230" as="targetPoint" />
            <mxPoint as="offset" />
            <Array as="points">
              <mxPoint x="520" y="590" />
              <mxPoint x="520" y="230" />
            </Array>
          </mxGeometry>
        </mxCell>
        <mxCell id="E52GenuPR0HvQd338yZz-25" value="yes" style="endArrow=classic;html=1;rounded=0;exitX=0;exitY=0.5;exitDx=0;exitDy=0;entryX=1;entryY=0.5;entryDx=0;entryDy=0;" edge="1" parent="1" source="E52GenuPR0HvQd338yZz-22" target="OzavWiV9OdfGLWeC7wIS-7">
          <mxGeometry x="-0.8995" y="10" width="50" height="50" relative="1" as="geometry">
            <mxPoint x="425" y="510" as="sourcePoint" />
            <mxPoint x="426" y="570" as="targetPoint" />
            <mxPoint as="offset" />
          </mxGeometry>
        </mxCell>
      </root>
    </mxGraphModel>
  </diagram>
</mxfile>
